<?xml version="1.0" encoding="UTF-8" standalone="no"?>
<!DOCTYPE svg PUBLIC "-//W3C//DTD SVG 1.1//EN" "http://www.w3.org/Graphics/SVG/1.1/DTD/svg11.dtd">
<svg xmlns="http://www.w3.org/2000/svg" version="1.1" viewBox="0.00 0.00 1024.00 1024.00">
<g stroke-width="2.00" fill="none" stroke-linecap="butt">
<path stroke="#8c888f" vector-effect="non-scaling-stroke" d="
  M 590.88 290.28
  C 583.25 287.72 576.10 284.74 568.22 282.82
  Q 531.91 273.98 494.51 275.97
  Q 493.99 276.00 493.99 276.52
  L 494.00 291.02
  A 0.28 0.27 -90.0 0 0 494.27 291.30
  L 590.75 291.13
  Q 593.40 291.13 590.88 290.28"
/>
<path stroke="#8c888f" vector-effect="non-scaling-stroke" d="
  M 708.70 519.57
  A 0.44 0.43 -45.0 0 1 708.71 518.98
  C 741.82 485.20 743.52 433.43 725.03 391.99
  C 707.04 351.66 671.49 319.55 629.22 306.14
  Q 621.31 303.64 618.25 303.72
  C 605.42 304.08 588.75 303.80 579.79 303.81
  Q 479.27 303.94 378.75 304.03
  C 377.62 304.03 376.62 304.12 375.56 304.66
  C 344.02 320.82 316.13 342.97 295.00 371.42
  Q 294.61 371.96 295.27 371.97
  Q 310.13 372.25 325.00 372.13
  C 328.16 372.11 331.76 372.05 333.69 369.19
  C 335.02 367.22 336.42 364.63 338.27 363.36
  Q 341.99 360.81 346.84 362.36
  C 349.11 363.08 349.95 365.60 350.98 367.44
  C 352.99 371.04 356.17 372.21 360.25 372.23
  Q 377.49 372.31 394.76 372.31
  C 404.49 372.31 410.80 364.13 417.50 358.28
  C 427.75 349.31 441.13 342.94 455.00 342.94
  Q 521.75 342.95 588.50 342.93
  Q 605.05 342.92 608.49 343.25
  C 644.12 346.63 672.74 371.80 687.57 403.17
  C 701.09 431.78 700.42 464.15 683.64 491.24
  Q 672.66 508.95 653.79 518.81
  A 0.48 0.47 -45.8 0 0 653.80 519.66
  C 674.34 529.69 688.45 548.44 694.60 570.24
  C 698.41 583.76 699.67 597.97 697.07 611.76
  C 694.40 625.89 691.12 634.39 684.18 647.45
  C 670.64 672.96 642.86 696.69 612.50 696.72
  Q 557.70 696.78 363.51 696.74
  Q 355.27 696.74 352.07 697.62
  C 344.30 699.76 339.00 706.40 339.15 714.72
  C 339.21 717.99 340.20 719.93 342.72 721.82
  Q 354.30 730.48 366.59 737.60
  A 2.82 2.77 -29.4 0 0 368.00 737.98
  Q 496.39 738.01 625.00 737.83
  C 636.26 737.81 650.64 730.41 660.65 724.35
  C 715.61 691.07 751.61 627.08 732.85 562.23
  Q 725.81 537.91 708.70 519.57"
/>
<path stroke="#8c888f" vector-effect="non-scaling-stroke" d="
  M 433.57 426.21
  C 441.62 411.86 430.85 394.35 414.75 394.29
  Q 390.66 394.21 321.12 394.31
  Q 310.88 394.33 307.03 395.59
  C 294.08 399.84 289.24 415.05 296.10 426.57
  C 301.11 434.97 308.94 436.73 318.25 436.74
  Q 363.24 436.78 408.21 436.73
  C 419.71 436.72 428.02 436.10 433.57 426.21"
/>
<path stroke="#8c888f" vector-effect="non-scaling-stroke" d="
  M 263.91 421.97
  Q 259.79 429.17 257.03 436.99
  Q 256.77 437.71 257.54 437.71
  L 276.20 437.72
  A 0.51 0.50 78.1 0 0 276.66 437.01
  C 274.05 431.02 269.56 426.02 264.66 421.84
  Q 264.20 421.46 263.91 421.97"
/>
<path stroke="#8c888f" vector-effect="non-scaling-stroke" d="
  M 619.14 449.91
  A 16.56 16.56 0.0 0 0 602.58 433.35
  L 479.72 433.35
  A 16.56 16.56 0.0 0 0 463.16 449.91
  L 463.16 450.67
  A 16.56 16.56 0.0 0 0 479.72 467.23
  L 602.58 467.23
  A 16.56 16.56 0.0 0 0 619.14 450.67
  L 619.14 449.91"
/>
<path stroke="#8c888f" vector-effect="non-scaling-stroke" d="
  M 363.16 475.24
  C 361.05 466.48 352.26 458.21 342.50 458.21
  Q 298.75 458.20 255.00 458.19
  Q 251.86 458.19 249.99 458.27
  Q 249.42 458.29 249.26 458.85
  Q 243.35 480.43 241.44 502.71
  A 0.86 0.86 0.0 0 0 242.29 503.64
  Q 289.86 503.75 337.25 503.69
  C 347.15 503.67 356.18 500.77 361.03 491.82
  Q 365.27 484.00 363.16 475.24"
/>
<path stroke="#8c888f" vector-effect="non-scaling-stroke" d="
  M 439.2013 481.1936
  A 19.16 18.85 12.0 0 0 424.3791 458.7719
  A 19.16 18.85 12.0 0 0 401.7187 473.2264
  A 19.16 18.85 12.0 0 0 416.5409 495.6481
  A 19.16 18.85 12.0 0 0 439.2013 481.1936"
/>
<path stroke="#8c888f" vector-effect="non-scaling-stroke" d="
  M 743.81 583.95
  L 754.41 583.91
  A 0.75 0.74 5.3 0 0 755.13 583.32
  Q 760.56 556.51 759.64 529.18
  A 0.69 0.68 88.7 0 0 758.96 528.52
  L 742.98 528.44
  A 0.26 0.26 0.0 0 0 742.72 528.72
  C 743.73 547.00 743.23 565.16 743.26 583.40
  Q 743.26 583.95 743.81 583.95"
/>
<path stroke="#8c888f" vector-effect="non-scaling-stroke" d="
  M 389.92 534.42
  Q 383.93 528.77 374.25 528.78
  Q 307.63 528.86 241.04 528.66
  Q 240.84 528.66 240.84 528.86
  Q 240.59 549.46 244.11 569.73
  Q 244.21 570.26 244.74 570.26
  Q 308.43 570.28 372.12 570.45
  C 379.79 570.47 385.47 569.86 390.51 564.81
  C 399.43 555.88 398.71 542.73 389.92 534.42"
/>
<path stroke="#8c888f" vector-effect="non-scaling-stroke" d="
  M 476.51 550.24
  A 20.66 20.66 0.0 0 0 455.85 529.58
  A 20.66 20.66 0.0 0 0 435.19 550.24
  A 20.66 20.66 0.0 0 0 455.85 570.90
  A 20.66 20.66 0.0 0 0 476.51 550.24"
/>
<path stroke="#8c888f" vector-effect="non-scaling-stroke" d="
  M 620.05 582.04
  A 18.21 18.21 0.0 0 0 601.84 563.83
  L 508.14 563.83
  A 18.21 18.21 0.0 0 0 489.93 582.04
  L 489.93 583.16
  A 18.21 18.21 0.0 0 0 508.14 601.37
  L 601.84 601.37
  A 18.21 18.21 0.0 0 0 620.05 583.16
  L 620.05 582.04"
/>
<path stroke="#8c888f" vector-effect="non-scaling-stroke" d="
  M 435.58 647.31
  C 450.85 634.18 441.88 609.50 421.25 609.50
  Q 361.00 609.51 300.75 609.51
  Q 293.72 609.51 291.50 609.78
  C 275.13 611.82 265.32 627.51 274.32 642.44
  Q 277.50 647.73 279.27 651.58
  Q 279.47 652.01 279.94 652.06
  Q 282.59 652.33 285.25 652.33
  Q 353.87 652.23 422.50 651.95
  Q 430.22 651.92 435.58 647.31"
/>
<path stroke="#8c888f" vector-effect="non-scaling-stroke" d="
  M 588.77 758.47
  L 436.98 758.50
  Q 436.36 758.50 436.04 759.04
  L 432.37 765.37
  A 0.70 0.70 0.0 0 0 432.77 766.39
  C 483.12 782.02 540.28 779.44 588.85 758.87
  Q 589.78 758.47 588.77 758.47"
/>
</g>
<path fill="#1b1321" d="
  M 0.00 0.00
  L 1024.00 0.00
  L 1024.00 1024.00
  L 0.00 1024.00
  L 0.00 0.00
  Z
  M 590.88 290.28
  C 583.25 287.72 576.10 284.74 568.22 282.82
  Q 531.91 273.98 494.51 275.97
  Q 493.99 276.00 493.99 276.52
  L 494.00 291.02
  A 0.28 0.27 -90.0 0 0 494.27 291.30
  L 590.75 291.13
  Q 593.40 291.13 590.88 290.28
  Z
  M 708.70 519.57
  A 0.44 0.43 -45.0 0 1 708.71 518.98
  C 741.82 485.20 743.52 433.43 725.03 391.99
  C 707.04 351.66 671.49 319.55 629.22 306.14
  Q 621.31 303.64 618.25 303.72
  C 605.42 304.08 588.75 303.80 579.79 303.81
  Q 479.27 303.94 378.75 304.03
  C 377.62 304.03 376.62 304.12 375.56 304.66
  C 344.02 320.82 316.13 342.97 295.00 371.42
  Q 294.61 371.96 295.27 371.97
  Q 310.13 372.25 325.00 372.13
  C 328.16 372.11 331.76 372.05 333.69 369.19
  C 335.02 367.22 336.42 364.63 338.27 363.36
  Q 341.99 360.81 346.84 362.36
  C 349.11 363.08 349.95 365.60 350.98 367.44
  C 352.99 371.04 356.17 372.21 360.25 372.23
  Q 377.49 372.31 394.76 372.31
  C 404.49 372.31 410.80 364.13 417.50 358.28
  C 427.75 349.31 441.13 342.94 455.00 342.94
  Q 521.75 342.95 588.50 342.93
  Q 605.05 342.92 608.49 343.25
  C 644.12 346.63 672.74 371.80 687.57 403.17
  C 701.09 431.78 700.42 464.15 683.64 491.24
  Q 672.66 508.95 653.79 518.81
  A 0.48 0.47 -45.8 0 0 653.80 519.66
  C 674.34 529.69 688.45 548.44 694.60 570.24
  C 698.41 583.76 699.67 597.97 697.07 611.76
  C 694.40 625.89 691.12 634.39 684.18 647.45
  C 670.64 672.96 642.86 696.69 612.50 696.72
  Q 557.70 696.78 363.51 696.74
  Q 355.27 696.74 352.07 697.62
  C 344.30 699.76 339.00 706.40 339.15 714.72
  C 339.21 717.99 340.20 719.93 342.72 721.82
  Q 354.30 730.48 366.59 737.60
  A 2.82 2.77 -29.4 0 0 368.00 737.98
  Q 496.39 738.01 625.00 737.83
  C 636.26 737.81 650.64 730.41 660.65 724.35
  C 715.61 691.07 751.61 627.08 732.85 562.23
  Q 725.81 537.91 708.70 519.57
  Z
  M 433.57 426.21
  C 441.62 411.86 430.85 394.35 414.75 394.29
  Q 390.66 394.21 321.12 394.31
  Q 310.88 394.33 307.03 395.59
  C 294.08 399.84 289.24 415.05 296.10 426.57
  C 301.11 434.97 308.94 436.73 318.25 436.74
  Q 363.24 436.78 408.21 436.73
  C 419.71 436.72 428.02 436.10 433.57 426.21
  Z
  M 263.91 421.97
  Q 259.79 429.17 257.03 436.99
  Q 256.77 437.71 257.54 437.71
  L 276.20 437.72
  A 0.51 0.50 78.1 0 0 276.66 437.01
  C 274.05 431.02 269.56 426.02 264.66 421.84
  Q 264.20 421.46 263.91 421.97
  Z
  M 619.14 449.91
  A 16.56 16.56 0.0 0 0 602.58 433.35
  L 479.72 433.35
  A 16.56 16.56 0.0 0 0 463.16 449.91
  L 463.16 450.67
  A 16.56 16.56 0.0 0 0 479.72 467.23
  L 602.58 467.23
  A 16.56 16.56 0.0 0 0 619.14 450.67
  L 619.14 449.91
  Z
  M 363.16 475.24
  C 361.05 466.48 352.26 458.21 342.50 458.21
  Q 298.75 458.20 255.00 458.19
  Q 251.86 458.19 249.99 458.27
  Q 249.42 458.29 249.26 458.85
  Q 243.35 480.43 241.44 502.71
  A 0.86 0.86 0.0 0 0 242.29 503.64
  Q 289.86 503.75 337.25 503.69
  C 347.15 503.67 356.18 500.77 361.03 491.82
  Q 365.27 484.00 363.16 475.24
  Z
  M 439.2013 481.1936
  A 19.16 18.85 12.0 0 0 424.3791 458.7719
  A 19.16 18.85 12.0 0 0 401.7187 473.2264
  A 19.16 18.85 12.0 0 0 416.5409 495.6481
  A 19.16 18.85 12.0 0 0 439.2013 481.1936
  Z
  M 743.81 583.95
  L 754.41 583.91
  A 0.75 0.74 5.3 0 0 755.13 583.32
  Q 760.56 556.51 759.64 529.18
  A 0.69 0.68 88.7 0 0 758.96 528.52
  L 742.98 528.44
  A 0.26 0.26 0.0 0 0 742.72 528.72
  C 743.73 547.00 743.23 565.16 743.26 583.40
  Q 743.26 583.95 743.81 583.95
  Z
  M 389.92 534.42
  Q 383.93 528.77 374.25 528.78
  Q 307.63 528.86 241.04 528.66
  Q 240.84 528.66 240.84 528.86
  Q 240.59 549.46 244.11 569.73
  Q 244.21 570.26 244.74 570.26
  Q 308.43 570.28 372.12 570.45
  C 379.79 570.47 385.47 569.86 390.51 564.81
  C 399.43 555.88 398.71 542.73 389.92 534.42
  Z
  M 476.51 550.24
  A 20.66 20.66 0.0 0 0 455.85 529.58
  A 20.66 20.66 0.0 0 0 435.19 550.24
  A 20.66 20.66 0.0 0 0 455.85 570.90
  A 20.66 20.66 0.0 0 0 476.51 550.24
  Z
  M 620.05 582.04
  A 18.21 18.21 0.0 0 0 601.84 563.83
  L 508.14 563.83
  A 18.21 18.21 0.0 0 0 489.93 582.04
  L 489.93 583.16
  A 18.21 18.21 0.0 0 0 508.14 601.37
  L 601.84 601.37
  A 18.21 18.21 0.0 0 0 620.05 583.16
  L 620.05 582.04
  Z
  M 435.58 647.31
  C 450.85 634.18 441.88 609.50 421.25 609.50
  Q 361.00 609.51 300.75 609.51
  Q 293.72 609.51 291.50 609.78
  C 275.13 611.82 265.32 627.51 274.32 642.44
  Q 277.50 647.73 279.27 651.58
  Q 279.47 652.01 279.94 652.06
  Q 282.59 652.33 285.25 652.33
  Q 353.87 652.23 422.50 651.95
  Q 430.22 651.92 435.58 647.31
  Z
  M 588.77 758.47
  L 436.98 758.50
  Q 436.36 758.50 436.04 759.04
  L 432.37 765.37
  A 0.70 0.70 0.0 0 0 432.77 766.39
  C 483.12 782.02 540.28 779.44 588.85 758.87
  Q 589.78 758.47 588.77 758.47
  Z"
/>
<path fill="#fdfdfd" d="
  M 568.22 282.82
  C 576.10 284.74 583.25 287.72 590.88 290.28
  Q 593.40 291.13 590.75 291.13
  L 494.27 291.30
  A 0.28 0.27 -90.0 0 1 494.00 291.02
  L 493.99 276.52
  Q 493.99 276.00 494.51 275.97
  Q 531.91 273.98 568.22 282.82
  Z"
/>
<path fill="#fdfdfd" d="
  M 708.70 519.57
  Q 725.81 537.91 732.85 562.23
  C 751.61 627.08 715.61 691.07 660.65 724.35
  C 650.64 730.41 636.26 737.81 625.00 737.83
  Q 496.39 738.01 368.00 737.98
  A 2.82 2.77 -29.4 0 1 366.59 737.60
  Q 354.30 730.48 342.72 721.82
  C 340.20 719.93 339.21 717.99 339.15 714.72
  C 339.00 706.40 344.30 699.76 352.07 697.62
  Q 355.27 696.74 363.51 696.74
  Q 557.70 696.78 612.50 696.72
  C 642.86 696.69 670.64 672.96 684.18 647.45
  C 691.12 634.39 694.40 625.89 697.07 611.76
  C 699.67 597.97 698.41 583.76 694.60 570.24
  C 688.45 548.44 674.34 529.69 653.80 519.66
  A 0.48 0.47 -45.8 0 1 653.79 518.81
  Q 672.66 508.95 683.64 491.24
  C 700.42 464.15 701.09 431.78 687.57 403.17
  C 672.74 371.80 644.12 346.63 608.49 343.25
  Q 605.05 342.92 588.50 342.93
  Q 521.75 342.95 455.00 342.94
  C 441.13 342.94 427.75 349.31 417.50 358.28
  C 410.80 364.13 404.49 372.31 394.76 372.31
  Q 377.49 372.31 360.25 372.23
  C 356.17 372.21 352.99 371.04 350.98 367.44
  C 349.95 365.60 349.11 363.08 346.84 362.36
  Q 341.99 360.81 338.27 363.36
  C 336.42 364.63 335.02 367.22 333.69 369.19
  C 331.76 372.05 328.16 372.11 325.00 372.13
  Q 310.13 372.25 295.27 371.97
  Q 294.61 371.96 295.00 371.42
  C 316.13 342.97 344.02 320.82 375.56 304.66
  C 376.62 304.12 377.62 304.03 378.75 304.03
  Q 479.27 303.94 579.79 303.81
  C 588.75 303.80 605.42 304.08 618.25 303.72
  Q 621.31 303.64 629.22 306.14
  C 671.49 319.55 707.04 351.66 725.03 391.99
  C 743.52 433.43 741.82 485.20 708.71 518.98
  A 0.44 0.43 -45.0 0 0 708.70 519.57
  Z"
/>
<path fill="#fdfdfd" d="
  M 414.75 394.29
  C 430.85 394.35 441.62 411.86 433.57 426.21
  C 428.02 436.10 419.71 436.72 408.21 436.73
  Q 363.24 436.78 318.25 436.74
  C 308.94 436.73 301.11 434.97 296.10 426.57
  C 289.24 415.05 294.08 399.84 307.03 395.59
  Q 310.88 394.33 321.12 394.31
  Q 390.66 394.21 414.75 394.29
  Z"
/>
<path fill="#fdfdfd" d="
  M 263.91 421.97
  Q 264.20 421.46 264.66 421.84
  C 269.56 426.02 274.05 431.02 276.66 437.01
  A 0.51 0.50 78.1 0 1 276.20 437.72
  L 257.54 437.71
  Q 256.77 437.71 257.03 436.99
  Q 259.79 429.17 263.91 421.97
  Z"
/>
<rect fill="#fdfdfd" x="463.16" y="433.35" width="155.98" height="33.88" rx="16.56"/>
<path fill="#fdfdfd" d="
  M 342.50 458.21
  C 352.26 458.21 361.05 466.48 363.16 475.24
  Q 365.27 484.00 361.03 491.82
  C 356.18 500.77 347.15 503.67 337.25 503.69
  Q 289.86 503.75 242.29 503.64
  A 0.86 0.86 0.0 0 1 241.44 502.71
  Q 243.35 480.43 249.26 458.85
  Q 249.42 458.29 249.99 458.27
  Q 251.86 458.19 255.00 458.19
  Q 298.75 458.20 342.50 458.21
  Z"
/>
<ellipse fill="#fdfdfd" cx="0.00" cy="0.00" transform="translate(420.46,477.21) rotate(12.0)" rx="19.16" ry="18.85"/>
<path fill="#fdfdfd" d="
  M 743.81 583.95
  Q 743.26 583.95 743.26 583.40
  C 743.23 565.16 743.73 547.00 742.72 528.72
  A 0.26 0.26 0.0 0 1 742.98 528.44
  L 758.96 528.52
  A 0.69 0.68 88.7 0 1 759.64 529.18
  Q 760.56 556.51 755.13 583.32
  A 0.75 0.74 5.3 0 1 754.41 583.91
  L 743.81 583.95
  Z"
/>
<path fill="#fdfdfd" d="
  M 389.92 534.42
  C 398.71 542.73 399.43 555.88 390.51 564.81
  C 385.47 569.86 379.79 570.47 372.12 570.45
  Q 308.43 570.28 244.74 570.26
  Q 244.21 570.26 244.11 569.73
  Q 240.59 549.46 240.84 528.86
  Q 240.84 528.66 241.04 528.66
  Q 307.63 528.86 374.25 528.78
  Q 383.93 528.77 389.92 534.42
  Z"
/>
<circle fill="#fdfdfd" cx="455.85" cy="550.24" r="20.66"/>
<rect fill="#fdfdfd" x="489.93" y="563.83" width="130.12" height="37.54" rx="18.21"/>
<path fill="#fdfdfd" d="
  M 421.25 609.50
  C 441.88 609.50 450.85 634.18 435.58 647.31
  Q 430.22 651.92 422.50 651.95
  Q 353.87 652.23 285.25 652.33
  Q 282.59 652.33 279.94 652.06
  Q 279.47 652.01 279.27 651.58
  Q 277.50 647.73 274.32 642.44
  C 265.32 627.51 275.13 611.82 291.50 609.78
  Q 293.72 609.51 300.75 609.51
  Q 361.00 609.51 421.25 609.50
  Z"
/>
<path fill="#fdfdfd" d="
  M 436.98 758.50
  L 588.77 758.47
  Q 589.78 758.47 588.85 758.87
  C 540.28 779.44 483.12 782.02 432.77 766.39
  A 0.70 0.70 0.0 0 1 432.37 765.37
  L 436.04 759.04
  Q 436.36 758.50 436.98 758.50
  Z"
/>
</svg>
